<svg id="Capa_1" data-name="Capa 1" xmlns="http://www.w3.org/2000/svg" xmlns:xlink="http://www.w3.org/1999/xlink" viewBox="0 0 1080 1080"><defs><style>.cls-1{fill:url(#linear-gradient);}.cls-2{fill:#fff;}</style><linearGradient id="linear-gradient" x1="121.21" y1="298.21" x2="958.79" y2="781.79" gradientUnits="userSpaceOnUse"><stop offset="0.13" stop-color="#348bed"/><stop offset="0.31" stop-color="#2b80e8"/><stop offset="0.64" stop-color="#1461db"/><stop offset="0.72" stop-color="#0e57d7"/></linearGradient></defs><circle class="cls-1" cx="540" cy="540" r="483.5"/><path class="cls-2" d="M845.31,510.46,708.73,373.88h0l-.24-.24c-.17-.17-.37-.3-.54-.46-.9-.85-1.82-1.65-2.77-2.39-.68-.53-1.37-1-2.08-1.52-.31-.22-.64-.41-1-.61a37.08,37.08,0,0,0-49.45,8.23L440.28,589.29V400.16a37.51,37.51,0,0,0-75,0V589.3l-77.54-77.54a37.5,37.5,0,0,0-53,53L376.26,706.36a37.23,37.23,0,0,0,2.81,2.54,36,36,0,0,0,2.95,2.17l0,0a37.3,37.3,0,0,0,16.92,6l.16,0c1.21.12,2.42.18,3.64.18h0c.19,0,.37,0,.56,0,1,0,2,0,3.05-.14l.74-.11c1-.11,1.92-.24,2.88-.42l.44-.11c1.05-.22,2.11-.47,3.15-.78l.16-.06c1.14-.35,2.25-.75,3.36-1.2h0l0,0a38.7,38.7,0,0,0,4.5-2.27l.84-.5a36.78,36.78,0,0,0,4.08-2.89c.13-.1.24-.22.36-.33.8-.67,1.6-1.37,2.35-2.12L644.47,491.19V679.84a37.5,37.5,0,0,0,75,0V490.71l72.79,72.79a37.51,37.51,0,1,0,53-53Z"/></svg>